<svg width="176" height="86" viewBox="0 0 176 86" fill="none" xmlns="http://www.w3.org/2000/svg">
<path d="M31.3602 32.0655C38.3602 32.0655 38.7082 38.5965 38.7082 39.9155C38.7082 43.3775 36.3492 47.9285 35.4422 49.3865L35.4182 49.4275L35.3942 49.4725L31.3652 56.4405L27.3322 49.4725L27.3082 49.4275L27.2842 49.3865C26.3742 47.9335 24.0182 43.4065 24.0182 39.9155C23.9886 38.0001 24.5739 36.1257 25.6882 34.5675C26.3645 33.7258 27.2335 33.0591 28.2218 32.624C29.2101 32.1889 30.2886 31.998 31.3662 32.0675L31.3602 32.0655ZM31.3602 29.2285C23.7752 29.2285 21.1552 35.3145 21.1552 39.9155C21.1552 44.9855 24.8552 50.8925 24.8552 50.8925L31.3442 62.1185L37.8302 50.8925C37.8302 50.8925 41.5302 44.9855 41.5302 39.9155C41.5302 35.3155 38.9302 29.2285 31.3252 29.2285H31.3602Z" fill="#D52620"/>
<path d="M46.2352 33.0205C46.0512 32.6125 45.8512 32.2045 45.6432 31.7955C45.4508 31.412 45.234 31.0413 44.9942 30.6855C44.7532 30.3305 44.5372 29.9915 44.2942 29.6645C44.0512 29.3375 43.7842 29.0485 43.5312 28.7375C43.2889 28.4491 43.0284 28.1766 42.7512 27.9215C42.4862 27.6685 42.2162 27.3945 41.9352 27.1545C41.6542 26.9145 41.3802 26.6805 41.0942 26.4605C40.8082 26.2405 40.5232 26.0525 40.2292 25.8405C39.9437 25.6426 39.648 25.46 39.3432 25.2935C39.0432 25.1225 38.7432 24.9625 38.4432 24.8115C38.1432 24.6605 37.8352 24.5255 37.5252 24.4035C37.2152 24.2815 36.9052 24.1585 36.5942 24.0525C36.2832 23.9465 35.9692 23.8525 35.6512 23.7585C35.3332 23.6645 35.0222 23.5955 34.7042 23.5255C34.3862 23.4555 34.0672 23.4035 33.7492 23.3545C33.4312 23.3055 33.1122 23.2685 32.7902 23.2405C32.4682 23.2125 32.1492 23.1915 31.8312 23.1835C31.5132 23.1755 31.1902 23.1835 30.8682 23.1835C30.5462 23.1835 30.2272 23.2125 29.9052 23.2405C29.5832 23.2685 29.2642 23.3055 28.9462 23.3545C28.6282 23.4035 28.3092 23.4605 27.9912 23.5255C27.6732 23.5905 27.3582 23.6725 27.0442 23.7585C26.7302 23.8445 26.4152 23.9425 26.1012 24.0525C25.7872 24.1625 25.4812 24.2775 25.1702 24.4035C24.8592 24.5295 24.5582 24.6685 24.2522 24.8115C23.9462 24.9545 23.6522 25.1215 23.3522 25.2935C23.0522 25.4655 22.7522 25.6485 22.4662 25.8405C22.1802 26.0325 21.8862 26.2485 21.6012 26.4605C21.3162 26.6725 21.0382 26.9095 20.7602 27.1545C20.4822 27.3995 20.2132 27.6545 19.9442 27.9215C19.6752 28.1885 19.4302 28.4565 19.1772 28.7375C18.9242 29.0185 18.6712 29.3455 18.4342 29.6685C18.1972 29.9915 17.9602 30.3335 17.7342 30.6895C17.5082 31.0455 17.2892 31.4125 17.0812 31.7995C16.8732 32.1865 16.6732 32.5875 16.4892 33.0245C16.4362 33.1385 16.3892 33.2575 16.3422 33.3715L17.9182 36.0125C17.9259 35.9542 17.9438 35.8976 17.9712 35.8455C18.1302 35.3765 18.3022 34.9275 18.4892 34.4985C18.6762 34.0695 18.8772 33.6575 19.0892 33.2735C19.3012 32.8895 19.5222 32.5145 19.7542 32.1635C19.9862 31.8125 20.2232 31.4775 20.4722 31.1635C20.7212 30.8495 20.9782 30.5475 21.2442 30.2635C21.5102 29.9795 21.7792 29.7125 22.0602 29.4475C22.3412 29.1825 22.6192 28.9575 22.9052 28.7335C23.1912 28.5095 23.4852 28.3005 23.7792 28.1085C24.0732 27.9165 24.3792 27.7325 24.6792 27.5655C24.9792 27.3985 25.2872 27.2435 25.5972 27.1005C25.9072 26.9575 26.2222 26.8315 26.5362 26.7165C26.8502 26.6015 27.1652 26.4965 27.4832 26.4025C27.8012 26.3085 28.1242 26.2315 28.4422 26.1615C28.7602 26.0915 29.0872 26.0345 29.4092 25.9905C29.7312 25.9465 30.0582 25.9125 30.3812 25.8905C30.7042 25.8685 31.0302 25.8575 31.3572 25.8575C31.6815 25.8521 32.0059 25.8631 32.3292 25.8905C32.6512 25.9235 32.9782 25.9475 33.3012 25.9905C33.6242 26.0335 33.9462 26.0905 34.2682 26.1615C34.5902 26.2325 34.9092 26.3125 35.2272 26.4025C35.5452 26.4925 35.8602 26.6025 36.1742 26.7165C36.4954 26.8328 36.809 26.969 37.1132 27.1245C37.4232 27.2875 37.7292 27.4185 38.0312 27.5855C38.3332 27.7525 38.6312 27.9325 38.9312 28.1285C39.2312 28.3245 39.5192 28.5365 39.8052 28.7535C40.0912 28.9705 40.3762 29.2145 40.6502 29.4675C40.9242 29.7205 41.2012 29.9855 41.4662 30.2835C41.7312 30.5815 41.9892 30.8635 42.2382 31.1835C42.4872 31.5035 42.7282 31.8365 42.9562 32.1835C43.1842 32.5305 43.4092 32.9065 43.6212 33.2935C43.8332 33.6805 44.0292 34.0935 44.2212 34.5185C44.4132 34.9435 44.5842 35.3965 44.7442 35.8655C44.7564 35.9413 44.7782 36.0153 44.8092 36.0855L46.3932 33.4405C46.3362 33.3095 46.2832 33.1755 46.2222 33.0325L46.2352 33.0205Z" fill="#D52620"/>
<path d="M49.3392 19.5415C49.0742 19.2675 48.8002 19.0065 48.5232 18.7495C48.2462 18.4925 47.9682 18.2435 47.7072 18.0025C47.4462 17.7615 47.1402 17.5335 46.8542 17.3085C46.5682 17.0835 46.2782 16.8675 45.9852 16.6595C45.6922 16.4515 45.3972 16.2515 45.1032 16.0595C44.8092 15.8675 44.4952 15.6755 44.1972 15.5005C43.8992 15.3255 43.5972 15.1535 43.2912 14.9905C42.9852 14.8275 42.6792 14.6725 42.3732 14.5215C42.0672 14.3705 41.7572 14.2315 41.4422 14.1135C41.1272 13.9955 40.8172 13.8315 40.5242 13.7135C40.2312 13.5955 39.8952 13.4765 39.5812 13.3705C39.2672 13.2645 38.9442 13.1585 38.6302 13.0645C38.3162 12.9705 37.9702 12.8755 37.6642 12.7935C37.3582 12.7115 37.0272 12.6385 36.7042 12.5685C36.3812 12.4985 36.0312 12.4345 35.7212 12.3815C35.4112 12.3285 35.0762 12.2755 34.7542 12.2305C34.4322 12.1855 34.1082 12.1485 33.7842 12.1155C33.4602 12.0825 33.1352 12.0625 32.8122 12.0425C32.4892 12.0225 32.1612 12.0015 31.8352 12.0015H30.8632C30.5364 11.9954 30.2095 12.0077 29.8842 12.0385C29.5572 12.0755 29.2352 12.0835 28.9122 12.1115C28.5892 12.1395 28.2712 12.1845 27.9402 12.2295C27.6092 12.2745 27.2952 12.3235 26.9732 12.3805C26.6512 12.4375 26.3282 12.4985 26.0062 12.5685C25.6842 12.6385 25.3652 12.7115 25.0472 12.7935C24.7292 12.8755 24.4062 12.9645 24.0922 13.0585C23.7782 13.1525 23.4552 13.2585 23.1412 13.3645C22.8272 13.4705 22.5082 13.5845 22.1942 13.7075C21.8802 13.8305 21.5692 13.9565 21.2592 14.0915C20.9492 14.2265 20.6392 14.3695 20.3322 14.4995C20.0162 14.6466 19.7081 14.8102 19.4092 14.9895C19.1192 15.1525 18.8092 15.3245 18.5032 15.4995C18.1972 15.6745 17.9032 15.8625 17.6032 16.0585C17.3032 16.2545 17.0152 16.4665 16.7212 16.6585C16.4193 16.858 16.1291 17.0747 15.8522 17.3075C15.5622 17.5485 15.2852 17.7605 15.0032 18.0015C14.7212 18.2425 14.4442 18.4915 14.1662 18.7445C13.8882 18.9975 13.6192 19.2675 13.3502 19.5445C13.0812 19.8215 12.8152 20.1035 12.5502 20.3935C12.2852 20.6835 12.0402 20.9855 11.7872 21.2935C11.5342 21.6015 11.2872 21.9185 11.0402 22.2485C10.7932 22.5785 10.5582 22.9135 10.3262 23.2605V23.2935L11.7472 25.6735C11.9142 25.4125 12.0782 25.1505 12.2472 24.9015C12.4802 24.5585 12.7212 24.2235 12.9612 23.9015C13.2012 23.5795 13.4552 23.2645 13.7082 22.9625C13.9612 22.6605 14.2182 22.3625 14.4802 22.0845C14.7422 21.8065 15.0072 21.5255 15.2962 21.2685C15.5852 21.0115 15.8392 20.7455 16.1122 20.5015C16.3852 20.2575 16.6672 20.0195 16.9492 19.7915C17.2312 19.5635 17.5162 19.3425 17.8062 19.1305C18.0962 18.9185 18.3862 18.7225 18.6802 18.5225C18.9742 18.3225 19.2682 18.1385 19.5702 17.9635C19.8722 17.7885 20.1702 17.6125 20.4702 17.4495C20.7702 17.2865 21.0782 17.1315 21.3842 16.9845C21.6902 16.8375 21.9962 16.6985 22.3072 16.5765C22.6182 16.4545 22.9272 16.3195 23.2382 16.2055C23.5492 16.0915 23.8672 15.9765 24.1812 15.8745C24.4952 15.7725 24.8102 15.6745 25.1282 15.5845C25.4462 15.4945 25.7612 15.4135 26.0792 15.3395C26.3972 15.2655 26.7162 15.1965 27.0342 15.1395C27.3522 15.0825 27.6752 15.0255 27.9972 14.9765C28.3192 14.9275 28.6382 14.8905 28.9602 14.8545C29.2822 14.8185 29.6052 14.7975 29.9272 14.7765C30.2492 14.7555 30.5682 14.7395 30.8942 14.7355C31.2202 14.7315 31.5392 14.7355 31.8612 14.7355C32.1832 14.7355 32.5062 14.7555 32.8282 14.7765C33.1502 14.7975 33.4732 14.8215 33.7912 14.8585C34.1092 14.8955 34.4362 14.9315 34.7582 14.9765C35.0802 15.0215 35.3992 15.0765 35.7172 15.1395C36.0352 15.2025 36.3542 15.2705 36.6722 15.3395C36.9902 15.4085 37.3092 15.4945 37.6272 15.5845C37.9452 15.6745 38.2602 15.7685 38.5742 15.8745C38.8882 15.9805 39.2032 16.0865 39.5132 16.2055C39.8232 16.3245 40.1332 16.4465 40.4442 16.5815C40.7552 16.7165 41.0602 16.8505 41.3672 16.9895C41.6742 17.1285 41.9792 17.2895 42.2812 17.4545C42.5832 17.6195 42.8812 17.7895 43.1812 17.9685C43.4812 18.1475 43.7732 18.3315 44.0672 18.5275C44.3612 18.7235 44.6552 18.9355 44.9412 19.1355C45.2272 19.3355 45.5172 19.5685 45.7982 19.7965C46.0792 20.0245 46.3612 20.2615 46.6392 20.5065C46.9172 20.7515 47.1862 21.0065 47.4552 21.2735C47.7242 21.5405 47.9902 21.8125 48.2712 22.0895C48.5522 22.3665 48.7892 22.6655 49.0432 22.9675C49.2972 23.2695 49.5432 23.5835 49.7862 23.9065C50.0292 24.2295 50.2682 24.5635 50.5002 24.9065C50.6802 25.1675 50.8552 25.4415 51.0272 25.7225L52.4482 23.3425L52.4032 23.2695C52.1702 22.9225 51.9342 22.5835 51.6892 22.2575C51.4442 21.9315 51.1952 21.6125 50.9422 21.3025L49.3392 19.5415Z" fill="#D52620"/>
<path d="M48.0772 26.3805C47.8362 26.0415 47.5872 25.7195 47.3342 25.4045C47.0812 25.0895 46.8242 24.7885 46.5622 24.4945C46.3002 24.2005 46.0312 23.9235 45.7462 23.6535C45.4612 23.3835 45.1992 23.1265 44.9302 22.8775C44.6612 22.6285 44.3632 22.3915 44.0772 22.1635C43.7912 21.9355 43.4972 21.7145 43.2032 21.5065C42.9092 21.2985 42.6152 21.0985 42.3172 20.9065C42.0192 20.7145 41.7172 20.5395 41.4112 20.3675C41.1052 20.1955 40.7992 20.0325 40.4882 19.8775C40.1772 19.7225 39.8722 19.5775 39.5572 19.4445C39.2422 19.3115 38.9282 19.1795 38.6142 19.0605C38.3002 18.9415 37.9812 18.8315 37.6632 18.7295C37.3452 18.6275 37.0222 18.5295 36.7042 18.4435C36.3862 18.3575 36.0592 18.2805 35.7372 18.2105C35.4152 18.1405 35.0922 18.0755 34.7652 18.0225C34.4382 17.9695 34.1162 17.9225 33.7892 17.8835C33.4622 17.8445 33.1402 17.8105 32.8132 17.7895C32.4862 17.7685 32.1602 17.7485 31.8332 17.7405C31.5062 17.7325 31.1802 17.7405 30.8532 17.7405C30.5262 17.7405 30.2002 17.7645 29.8732 17.7895C29.5462 17.8145 29.2242 17.8425 28.8972 17.8795C28.5702 17.9165 28.2482 17.9655 27.9212 18.0225C27.5942 18.0795 27.2762 18.1365 26.9492 18.2105C26.6222 18.2845 26.3042 18.3575 25.9862 18.4435C25.6682 18.5295 25.3452 18.6235 25.0272 18.7255C24.7092 18.8275 24.3902 18.9415 24.0762 19.0605C23.7622 19.1795 23.4432 19.3095 23.1292 19.4445C22.8152 19.5795 22.5092 19.7265 22.1982 19.8775C21.8872 20.0285 21.5862 20.1955 21.2802 20.3675C20.9742 20.5395 20.6722 20.7185 20.3742 20.9105C20.0762 21.1025 19.7742 21.3185 19.4842 21.5105C19.1942 21.7025 18.9002 21.9395 18.6102 22.1675C18.3202 22.3955 18.0392 22.6325 17.7612 22.8815C17.4832 23.1305 17.2062 23.3875 16.9452 23.6575C16.6842 23.9275 16.4062 24.2085 16.1292 24.4985C15.8522 24.7885 15.6192 25.0985 15.3622 25.4085C15.1052 25.7185 14.8622 26.0455 14.6192 26.3845C14.3762 26.7235 14.1452 27.0705 13.9192 27.4335C13.6932 27.7965 13.5392 28.0585 13.3562 28.3805L14.8262 30.8295C14.9362 30.6095 15.0512 30.3925 15.1652 30.1765C15.3772 29.7925 15.5982 29.4175 15.8222 29.0585C16.0462 28.6995 16.2832 28.3585 16.5222 28.0255C16.7612 27.6925 17.0122 27.3725 17.2652 27.0665C17.5182 26.7605 17.7752 26.4665 18.0412 26.1885C18.3072 25.9105 18.5762 25.6375 18.8572 25.3725C19.1382 25.1075 19.4082 24.8665 19.6732 24.6335C19.9382 24.4005 20.2442 24.1725 20.5302 23.9595C20.8162 23.7465 21.1142 23.5515 21.4122 23.3595C21.7102 23.1675 22.0122 22.9835 22.3122 22.8125C22.6122 22.6415 22.9122 22.4775 23.2222 22.3265C23.5239 22.1745 23.8333 22.0383 24.1492 21.9185C24.4592 21.8045 24.7742 21.6615 25.0882 21.5475C25.4022 21.4335 25.7172 21.3275 26.0352 21.2335C26.3532 21.1395 26.6682 21.0495 26.9902 20.9725C27.3122 20.8955 27.6272 20.8255 27.9492 20.7725C28.2712 20.7195 28.5942 20.6585 28.9162 20.6175C29.2382 20.5765 29.5612 20.5395 29.8832 20.5175C30.2052 20.4955 30.5322 20.4725 30.8552 20.4645C31.1782 20.4565 31.5042 20.4645 31.8272 20.4645C32.1502 20.4645 32.4762 20.4935 32.7992 20.5175C33.1222 20.5415 33.4482 20.5745 33.7712 20.6175C34.0942 20.6605 34.4162 20.7115 34.7342 20.7725C35.0522 20.8335 35.3792 20.8995 35.6972 20.9805C36.0152 21.0615 36.3342 21.1435 36.6522 21.2375C36.9702 21.3315 37.2852 21.4375 37.5992 21.5515C37.9132 21.6655 38.2242 21.7885 38.5342 21.9225C38.8442 22.0565 39.1542 22.1965 39.4612 22.3305C39.7682 22.4645 40.0732 22.6445 40.3752 22.8165C40.6772 22.9885 40.9752 23.1675 41.2692 23.3595C41.5632 23.5515 41.8612 23.7675 42.1512 23.9675C42.4412 24.1675 42.7272 24.4045 43.0082 24.6415C43.2892 24.8785 43.5672 25.1235 43.8242 25.3805C44.0812 25.6375 44.3712 25.9075 44.6402 26.1965C44.9092 26.4855 45.1632 26.7725 45.4162 27.0785C45.6692 27.3845 45.9162 27.7035 46.1592 28.0335C46.4022 28.3635 46.6452 28.7155 46.8772 29.0745C47.1092 29.4335 47.3222 29.8095 47.5342 30.1975C47.6612 30.4225 47.7792 30.6545 47.8972 30.8915L49.3672 28.4425C49.1792 28.1035 48.9832 27.7735 48.7792 27.4545C48.5752 27.1355 48.3182 26.7445 48.0792 26.4055L48.0772 26.3805Z" fill="#D52620"/>
<path d="M35.5122 35.5345V44.5965H33.1442V41.2495H29.5772V44.5965H27.2092V35.5345H29.5772V38.8845H33.1452V35.5345H35.5122Z" fill="#D52620"/>
<path d="M63.3253 35.5147L62.1003 44.0867H57.4473L60.2473 24.0867H64.9213L63.8213 31.8427H69.7733L70.8733 24.0867H75.5233L72.7233 44.0867H68.0673L69.2223 35.5147H63.3253Z" fill="#343841"/>
<path d="M91.4023 34.7917C91.3733 39.0127 89.2963 44.5917 82.8543 44.5917C78.7723 44.5917 76.4413 42.1427 76.4413 38.0607C76.4413 33.7867 78.5193 28.2607 84.9893 28.2607C89.0633 28.2607 91.4313 30.7797 91.4023 34.7917ZM81.0313 38.3477C81.0313 40.3887 81.7543 41.2377 83.1703 41.2377C86.1703 41.2377 86.7793 36.8457 86.7793 34.5067C86.8083 32.4657 86.0853 31.6167 84.6693 31.6167C81.6383 31.6167 81.0313 36.0087 81.0313 38.3477Z" fill="#343841"/>
<path d="M99.5223 40.9487C100.133 40.9448 100.732 40.7785 101.257 40.4667L102.482 43.4667C101.191 44.1872 99.74 44.5746 98.2613 44.5937C94.8693 44.5447 93.5013 42.5937 93.9753 39.0097L94.9873 31.9317H92.8773L93.3103 28.7517H95.6203L96.5753 25.3597L100.441 24.9107L99.8943 28.7517H103.36L102.482 31.9317H99.4823L98.4823 39.0097C98.2813 40.4867 98.6243 40.9487 99.5223 40.9487Z" fill="#343841"/>
<path d="M119.511 26.2107L117.021 28.6967C116.493 28.166 115.862 27.7477 115.168 27.4671C114.473 27.1864 113.729 27.0492 112.98 27.0637C111.188 27.0637 109.943 27.8797 109.943 29.2887C109.943 30.4437 110.723 30.9217 113.294 31.8607C116.503 32.8977 118.437 34.4857 118.437 37.5507C118.437 40.6157 116.355 44.5967 109.865 44.5967C108.515 44.6543 107.168 44.4243 105.913 43.9217C104.658 43.4192 103.525 42.6556 102.587 41.6817L105.273 39.0247C105.858 39.6564 106.569 40.1577 107.36 40.4962C108.151 40.8346 109.005 41.0024 109.865 40.9887C112.033 40.9887 113.506 39.9767 113.506 38.3317C113.506 37.0007 112.726 36.2907 110.359 35.4417C106.571 34.2167 105.052 32.4947 105.052 29.8087C105.052 26.8897 107.367 23.5957 112.939 23.5957C114.158 23.5375 115.375 23.7407 116.508 24.1917C117.642 24.6428 118.666 25.3312 119.511 26.2107Z" fill="#343841"/>
<path d="M135.342 34.2447C135.342 38.6657 133.301 44.5847 127.223 44.5847C126.274 44.6007 125.328 44.4629 124.423 44.1767L123.643 50.0427L119.108 50.5327L122.141 28.7507H126.097V30.4607C126.65 29.7889 127.341 29.2445 128.124 28.8647C128.907 28.485 129.762 28.279 130.632 28.2607C133.754 28.2607 135.342 30.4327 135.342 34.2447ZM125.982 33.3797L124.933 40.8747C125.547 41.1281 126.205 41.256 126.868 41.2507C129.701 41.2507 130.742 37.2057 130.742 34.3107C130.742 32.1717 129.926 31.5957 128.893 31.5957C128.305 31.6564 127.738 31.8482 127.233 32.1569C126.728 32.4656 126.299 32.8835 125.977 33.3797H125.982Z" fill="#343841"/>
<path d="M152.038 34.7917C152.009 39.0127 149.928 44.5917 143.486 44.5917C139.404 44.5917 137.073 42.1427 137.073 38.0607C137.073 33.7867 139.155 28.2607 145.625 28.2607C149.699 28.2607 152.067 30.7797 152.038 34.7917ZM141.669 38.3477C141.669 40.3887 142.392 41.2377 143.808 41.2377C146.808 41.2377 147.421 36.8457 147.421 34.5067C147.45 32.4657 146.727 31.6167 145.311 31.6167C142.274 31.6167 141.669 36.0087 141.669 38.3477Z" fill="#343841"/>
<path d="M160.153 40.9477C160.764 40.9431 161.363 40.7767 161.888 40.4657L163.113 43.4657C161.823 44.1864 160.374 44.5738 158.896 44.5927C155.516 44.5637 154.128 42.6007 154.622 39.0207L155.63 31.9427H153.507L153.94 28.7627H156.25L157.209 25.3627L161.079 24.9297L160.528 28.7707H163.998L163.098 31.9507H160.098L159.118 39.0287C158.907 40.4897 159.259 40.9477 160.153 40.9477Z" fill="#343841"/>
<path d="M62.9147 66.0424C62.9147 67.9204 61.5917 68.7774 59.7597 68.7774H58.8457V71.5424H57.1387V63.4224H59.6207C61.6617 63.4224 62.9147 64.2674 62.9147 66.0424ZM61.1517 66.0424C61.1517 65.0914 60.5967 64.6704 59.5967 64.6704H58.8457V67.5274H59.6217C60.5557 67.5044 61.1517 67.1424 61.1517 66.0424Z" fill="#D52620"/>
<path d="M68.8167 70.6024L68.4657 71.7084C68.1639 71.7194 67.8662 71.6371 67.6128 71.4728C67.3595 71.3086 67.1629 71.0703 67.0497 70.7904C66.8519 71.0954 66.5772 71.3428 66.2533 71.5077C65.9293 71.6726 65.5676 71.749 65.2047 71.7294C64.9431 71.7511 64.6799 71.7169 64.4326 71.6289C64.1853 71.541 63.9596 71.4015 63.7704 71.2196C63.5812 71.0377 63.4329 70.8176 63.3354 70.5739C63.2378 70.3303 63.1933 70.0686 63.2047 69.8064C63.2047 68.4434 64.2167 67.7064 66.0377 67.7064H66.7437V67.4064C66.7437 66.6304 66.4217 66.3814 65.6437 66.3814C65.0858 66.4092 64.5353 66.5208 64.0107 66.7124L63.6397 65.5984C64.3643 65.3067 65.1366 65.1518 65.9177 65.1414C67.6237 65.1414 68.3667 65.9044 68.3667 67.3094V69.8244C68.3597 70.3204 68.5107 70.4964 68.8167 70.6024ZM66.7467 69.8394V68.6564H66.2037C65.3097 68.6564 64.8687 68.9874 64.8687 69.6644C64.8687 70.2154 65.1467 70.5334 65.6567 70.5334C65.885 70.5308 66.108 70.4645 66.3006 70.3418C66.4932 70.2192 66.6477 70.0452 66.7467 69.8394Z" fill="#D52620"/>
<path d="M73.8017 65.2264L73.5237 66.8264C73.3456 66.7758 73.1618 66.7482 72.9767 66.7444C72.2217 66.7444 71.8767 67.3074 71.6537 68.3074V71.5204H70.0217V65.3204H71.4507L71.6017 66.5454C71.6818 66.1723 71.8814 65.8353 72.17 65.5856C72.4587 65.3359 72.8208 65.187 73.2017 65.1614C73.4038 65.154 73.6059 65.1758 73.8017 65.2264Z" fill="#D52620"/>
<path d="M74.6137 71.5414V62.8484L76.2467 62.6604V71.5434L74.6137 71.5414ZM80.1737 71.5414H78.3037L76.3197 68.1414L78.2917 65.3244H79.9977L78.0387 68.0554L80.1737 71.5414Z" fill="#D52620"/>
<path d="M82.7257 63.0914C82.7312 63.29 82.6775 63.4857 82.5714 63.6536C82.4654 63.8215 82.3117 63.954 82.13 64.0342C81.9483 64.1144 81.7468 64.1387 81.5512 64.104C81.3557 64.0693 81.1749 63.9771 81.0319 63.8392C80.889 63.7014 80.7903 63.524 80.7485 63.3299C80.7067 63.1357 80.7236 62.9335 80.7972 62.749C80.8707 62.5645 80.9976 62.4061 81.1615 62.294C81.3255 62.1819 81.5191 62.1211 81.7177 62.1194C81.8488 62.1127 81.9799 62.133 82.1028 62.179C82.2258 62.225 82.338 62.2957 82.4325 62.3868C82.5269 62.478 82.6017 62.5875 82.6522 62.7087C82.7026 62.8299 82.7276 62.9602 82.7257 63.0914ZM80.9047 71.5414V65.3244H82.5377V71.5414H80.9047Z" fill="#D52620"/>
<path d="M89.3297 67.0144V71.5414H87.6967V67.2964C87.6967 66.5784 87.4437 66.3784 87.0227 66.3784C86.7683 66.4123 86.5265 66.5097 86.3196 66.6616C86.1127 66.8134 85.9473 67.0149 85.8387 67.2474V71.5414H84.2067V65.3244H85.6317L85.7627 66.1084C85.9755 65.8084 86.257 65.5636 86.5837 65.3945C86.9104 65.2254 87.2728 65.1369 87.6407 65.1364C87.8813 65.1281 88.1208 65.1725 88.3424 65.2667C88.564 65.3608 88.7623 65.5024 88.9233 65.6814C89.0843 65.8604 89.2041 66.0726 89.2743 66.3029C89.3445 66.5332 89.3634 66.776 89.3297 67.0144Z" fill="#D52620"/>
<path d="M94.6207 65.8994C94.9571 66.006 95.25 66.2187 95.4554 66.5057C95.6607 66.7927 95.7675 67.1386 95.7597 67.4914C95.7597 68.7164 94.7967 69.5814 93.2287 69.5814C92.9868 69.585 92.7455 69.5574 92.5107 69.4994C92.4417 69.5435 92.3845 69.6037 92.344 69.6747C92.3034 69.7458 92.2806 69.8256 92.2777 69.9074C92.2777 70.1154 92.3837 70.3154 92.9837 70.3154H93.9267C95.3187 70.3154 96.2127 71.0664 96.2127 72.0994C96.2127 73.3564 95.1307 74.1404 93.0777 74.1404C90.8287 74.1404 90.2207 73.4014 90.2207 72.1564H91.6947C91.6947 72.7444 91.9517 73.0014 93.1237 73.0014C94.2957 73.0014 94.5607 72.6834 94.5607 72.2384C94.5607 71.7934 94.2467 71.5564 93.5977 71.5564H92.6977C91.4077 71.5564 90.8727 70.9934 90.8727 70.3314C90.8863 70.0937 90.9592 69.8632 91.0845 69.6608C91.2099 69.4584 91.3839 69.2905 91.5907 69.1724C91.2536 69.0186 90.9699 68.768 90.7758 68.4524C90.5817 68.1368 90.4859 67.7706 90.5007 67.4004C90.5082 67.0743 90.5842 66.7534 90.7239 66.4585C90.8635 66.1637 91.0636 65.9015 91.3112 65.689C91.5587 65.4765 91.8482 65.3185 92.1608 65.2252C92.4734 65.1319 92.8022 65.1054 93.1257 65.1474C94.1398 65.2031 95.146 64.9405 96.0037 64.3964L96.4117 65.6744C95.8332 65.8571 95.2264 65.9333 94.6207 65.8994ZM92.1387 67.3644C92.1199 67.5084 92.1325 67.6548 92.1755 67.7935C92.2185 67.9322 92.291 68.06 92.3879 68.1681C92.4849 68.2763 92.604 68.3622 92.7372 68.4201C92.8704 68.4779 93.0145 68.5064 93.1597 68.5034C93.7717 68.5034 94.1677 68.0954 94.1677 67.3404C94.1677 66.5854 93.8327 66.2504 93.1467 66.2504C93.004 66.2464 92.862 66.2733 92.7307 66.3293C92.5994 66.3854 92.4818 66.4693 92.386 66.5751C92.2901 66.681 92.2184 66.8064 92.1758 66.9427C92.1331 67.0789 92.1204 67.2228 92.1387 67.3644Z" fill="#D52620"/>
<path d="M103.184 64.7734V71.5424H101.478V64.7744H99.3347V63.4224H105.393L105.209 64.7734H103.184Z" fill="#D52620"/>
<path d="M109.165 65.2264L108.887 66.8264C108.71 66.7754 108.527 66.7479 108.344 66.7444C107.589 66.7444 107.244 67.3074 107.021 68.3074V71.5204H105.385V65.3204H106.814L106.965 66.5454C107.045 66.1723 107.244 65.8353 107.533 65.5856C107.822 65.3359 108.184 65.187 108.565 65.1614C108.767 65.1536 108.969 65.1754 109.165 65.2264Z" fill="#D52620"/>
<path d="M114.896 70.6024L114.549 71.7084C114.247 71.7205 113.948 71.6387 113.695 71.4743C113.441 71.3099 113.245 71.071 113.133 70.7904C112.935 71.0951 112.66 71.3423 112.336 71.5071C112.012 71.672 111.651 71.7486 111.288 71.7294C111.026 71.7511 110.763 71.7169 110.516 71.6289C110.268 71.541 110.043 71.4015 109.853 71.2196C109.664 71.0377 109.516 70.8176 109.418 70.5739C109.321 70.3303 109.276 70.0686 109.288 69.8064C109.288 68.4434 110.296 67.7064 112.117 67.7064H112.827V67.4064C112.827 66.6304 112.5 66.3814 111.727 66.3814C111.169 66.4084 110.618 66.52 110.094 66.7124L109.723 65.5984C110.446 65.3064 111.217 65.1514 111.997 65.1414C113.703 65.1414 114.446 65.9044 114.446 67.3094V69.8244C114.439 70.3204 114.594 70.4964 114.896 70.6024ZM112.83 69.8394V68.6564H112.283C111.389 68.6564 110.948 68.9874 110.948 69.6644C110.948 70.2154 111.23 70.5334 111.74 70.5334C111.968 70.5308 112.191 70.4645 112.384 70.3418C112.576 70.2192 112.731 70.0452 112.83 69.8394Z" fill="#D52620"/>
<path d="M121.244 67.0144V71.5414H119.611V67.2964C119.611 66.5784 119.358 66.3784 118.937 66.3784C118.683 66.4119 118.441 66.5091 118.235 66.6611C118.029 66.813 117.864 67.0148 117.757 67.2474V71.5414H116.125V65.3244H117.55L117.681 66.1084C117.894 65.8084 118.175 65.5637 118.502 65.3946C118.828 65.2255 119.191 65.137 119.559 65.1364C119.799 65.1285 120.038 65.1733 120.259 65.2676C120.481 65.362 120.678 65.5036 120.839 65.6826C121 65.8616 121.119 66.0736 121.189 66.3037C121.259 66.5337 121.278 66.7764 121.244 67.0144Z" fill="#D52620"/>
<path d="M127.096 65.8874L126.459 66.8594C126.026 66.5426 125.508 66.3635 124.973 66.3454C124.381 66.3454 124.079 66.5654 124.079 66.9084C124.079 67.2514 124.287 67.4354 125.365 67.7534C126.59 68.0924 127.292 68.6104 127.292 69.7124C127.292 71.0024 126.092 71.7294 124.635 71.7294C123.715 71.7578 122.82 71.4361 122.129 70.8294L122.945 69.9024C123.4 70.2936 123.978 70.5129 124.578 70.5224C125.203 70.5224 125.599 70.2654 125.599 69.8534C125.599 69.3714 125.379 69.2204 124.244 68.9024C122.999 68.5514 122.419 67.9304 122.419 66.9924C122.419 65.9354 123.37 65.1394 124.868 65.1394C125.675 65.1227 126.462 65.3871 127.096 65.8874Z" fill="#D52620"/>
<path d="M130.192 63.0914C130.197 63.29 130.144 63.4857 130.037 63.6536C129.931 63.8215 129.778 63.954 129.596 64.0342C129.414 64.1144 129.213 64.1387 129.017 64.104C128.822 64.0693 128.641 63.9771 128.498 63.8392C128.355 63.7014 128.256 63.524 128.214 63.3299C128.173 63.1357 128.19 62.9335 128.263 62.749C128.337 62.5645 128.464 62.4061 128.628 62.294C128.791 62.1819 128.985 62.1211 129.184 62.1194C129.315 62.1127 129.446 62.133 129.569 62.179C129.692 62.225 129.804 62.2957 129.898 62.3868C129.993 62.478 130.068 62.5875 130.118 62.7087C130.169 62.8299 130.194 62.9602 130.192 63.0914ZM128.371 71.5414V65.3244H130.004V71.5414H128.371Z" fill="#D52620"/>
<path d="M133.719 71.7294C132.445 71.7294 131.792 70.9784 131.792 69.5944V66.4944H130.878V65.3224H131.792V63.9614L133.425 63.7614V65.3244H134.85L134.687 66.4964H133.434V69.5584C133.434 70.1704 133.634 70.4034 134.05 70.4034C134.297 70.3958 134.537 70.3196 134.744 70.1834L135.315 71.2484C134.841 71.5638 134.284 71.7315 133.715 71.7304L133.719 71.7294Z" fill="#D52620"/>
<path d="M142.03 64.7734V71.5424H140.324V64.7744H138.189V63.4224H144.239L144.051 64.7734H142.03Z" fill="#D52620"/>
<path d="M149.304 70.6024L148.957 71.7084C148.655 71.7199 148.357 71.6379 148.103 71.4736C147.85 71.3093 147.653 71.0707 147.541 70.7904C147.343 71.0951 147.068 71.3423 146.744 71.5071C146.42 71.672 146.059 71.7486 145.696 71.7294C145.434 71.7511 145.171 71.7169 144.924 71.6289C144.676 71.541 144.451 71.4015 144.261 71.2196C144.072 71.0377 143.924 70.8176 143.826 70.5739C143.729 70.3303 143.684 70.0686 143.696 69.8064C143.696 68.4434 144.708 67.7064 146.529 67.7064H147.235V67.4064C147.235 66.6304 146.913 66.3814 146.135 66.3814C145.577 66.4092 145.026 66.5208 144.502 66.7124L144.131 65.5984C144.854 65.3071 145.625 65.1522 146.405 65.1414C148.111 65.1414 148.854 65.9044 148.854 67.3094V69.8244C148.851 70.3204 149.002 70.4964 149.304 70.6024ZM147.238 69.8394V68.6564H146.687C145.793 68.6564 145.352 68.9874 145.352 69.6644C145.352 70.2154 145.63 70.5334 146.14 70.5334C146.37 70.5325 146.594 70.4669 146.789 70.3442C146.983 70.2215 147.139 70.0466 147.239 69.8394H147.238Z" fill="#D52620"/>
<path d="M153.627 71.5414L152.455 69.1414L151.304 71.5414H149.496L151.516 68.2724L149.708 65.3294H151.565L152.528 67.3954L153.467 65.3294H155.23L153.503 68.2154L155.52 71.5464L153.627 71.5414Z" fill="#D52620"/>
<path d="M158.069 63.0924C158.071 63.2242 158.046 63.355 157.995 63.4767C157.944 63.5984 157.869 63.7083 157.774 63.7998C157.679 63.8913 157.567 63.9624 157.443 64.0086C157.32 64.0548 157.188 64.0751 157.057 64.0684C156.923 64.078 156.789 64.06 156.662 64.0154C156.536 63.9708 156.42 63.9007 156.322 63.8093C156.224 63.718 156.145 63.6074 156.092 63.4845C156.038 63.3616 156.011 63.229 156.011 63.0949C156.011 62.9609 156.038 62.8283 156.092 62.7054C156.145 62.5824 156.224 62.4719 156.322 62.3805C156.42 62.2892 156.536 62.2191 156.662 62.1745C156.789 62.1299 156.923 62.1118 157.057 62.1214C157.188 62.1147 157.319 62.135 157.442 62.1809C157.566 62.2269 157.678 62.2976 157.773 62.3886C157.868 62.4797 157.943 62.5892 157.994 62.7104C158.045 62.8316 158.07 62.961 158.069 63.0924ZM156.244 71.5424V65.3254H157.877V71.5424H156.244Z" fill="#D52620"/>
<path d="M163.788 65.8884L163.163 66.8604C162.731 66.5431 162.213 66.3639 161.677 66.3464C161.085 66.3464 160.783 66.5664 160.783 66.9094C160.783 67.2524 160.991 67.4364 162.073 67.7544C163.298 68.0934 164 68.6114 164 69.7134C164 71.0034 162.8 71.7304 161.343 71.7304C160.422 71.7586 159.525 71.437 158.833 70.8304L159.649 69.9034C160.104 70.2946 160.682 70.514 161.282 70.5234C161.911 70.5234 162.303 70.2664 162.303 69.8544C162.303 69.3724 162.083 69.2214 160.948 68.9034C159.723 68.5524 159.127 67.9314 159.127 66.9934C159.127 65.9364 160.078 65.1404 161.576 65.1404C162.378 65.1277 163.16 65.393 163.789 65.8914L163.788 65.8884Z" fill="#D52620"/>
</svg>
